<svg width="16" height="20" viewBox="0 0 16 20" fill="none" xmlns="http://www.w3.org/2000/svg">
<path d="M11.6133 4.77881C11.7923 4.77881 12.0975 4.80729 12.5288 4.86426C12.9601 4.92122 13.4321 5.08398 13.9448 5.35254C14.4657 5.61296 14.9377 6.04834 15.3608 6.65869C15.3364 6.68311 15.2184 6.77262 15.0068 6.92725C14.7952 7.07373 14.5592 7.29346 14.2988 7.58643C14.0384 7.87126 13.8105 8.23747 13.6152 8.68506C13.4199 9.12451 13.3223 9.64941 13.3223 10.2598C13.3223 10.9596 13.4443 11.5537 13.6885 12.042C13.9408 12.5303 14.2297 12.925 14.5552 13.2261C14.8888 13.519 15.1818 13.7347 15.4341 13.873C15.6945 14.0114 15.8328 14.0846 15.8491 14.0928C15.841 14.1253 15.7352 14.4142 15.5317 14.9595C15.3364 15.5047 15.0109 16.111 14.5552 16.7783C14.1564 17.3561 13.7251 17.8892 13.2612 18.3774C12.8055 18.8657 12.2562 19.1099 11.6133 19.1099C11.182 19.1099 10.828 19.0488 10.5513 18.9268C10.2746 18.7965 9.98975 18.6704 9.69678 18.5483C9.40381 18.4181 9.00911 18.353 8.5127 18.353C8.03255 18.353 7.62972 18.4181 7.3042 18.5483C6.98682 18.6785 6.68164 18.8088 6.38867 18.939C6.10384 19.0692 5.76611 19.1343 5.37549 19.1343C4.78141 19.1343 4.26058 18.8983 3.81299 18.4263C3.3654 17.9543 2.9056 17.3887 2.43359 16.7295C1.88835 15.9482 1.42041 14.9961 1.02979 13.873C0.647298 12.7419 0.456055 11.6025 0.456055 10.4551C0.456055 9.22624 0.687988 8.19678 1.15186 7.3667C1.61572 6.52848 2.2098 5.89779 2.93408 5.47461C3.6665 5.04329 4.42334 4.82764 5.20459 4.82764C5.61963 4.82764 6.01025 4.89681 6.37646 5.03516C6.74268 5.16536 7.08447 5.29964 7.40186 5.43799C7.72738 5.57633 8.02035 5.64551 8.28076 5.64551C8.53304 5.64551 8.82601 5.57227 9.15967 5.42578C9.49333 5.2793 9.86768 5.13688 10.2827 4.99854C10.6978 4.85205 11.1413 4.77881 11.6133 4.77881ZM10.9419 3.22852C10.6245 3.611 10.2257 3.93245 9.74561 4.19287C9.26546 4.44515 8.80973 4.57129 8.37842 4.57129C8.2889 4.57129 8.20345 4.56315 8.12207 4.54688C8.11393 4.52246 8.10579 4.4777 8.09766 4.4126C8.08952 4.34749 8.08545 4.27832 8.08545 4.20508C8.08545 3.7168 8.19124 3.24479 8.40283 2.78906C8.61442 2.3252 8.85449 1.94271 9.12305 1.6416C9.46484 1.2347 9.89616 0.896973 10.417 0.628418C10.9378 0.359863 11.4342 0.217448 11.9062 0.201172C11.9307 0.306966 11.9429 0.433105 11.9429 0.57959C11.9429 1.06787 11.8493 1.54395 11.6621 2.00781C11.4749 2.46354 11.2349 2.87044 10.9419 3.22852Z" fill="black"/>
</svg>
